<svg width="196" height="159" viewBox="0 0 196 159" fill="none" xmlns="http://www.w3.org/2000/svg">
<g clip-path="url(#clip0_104_103)">
<path d="M182.27 34.64C182.27 46.74 172.46 56.55 160.36 56.55C148.26 56.55 138.45 46.74 138.45 34.64C138.45 22.54 148.26 12.73 160.36 12.73C172.46 12.73 182.27 22.54 182.27 34.64Z" fill="#F4D967"/>
<path d="M105.32 45.03L107.34 49.13L111.87 49.78L108.59 52.98L109.36 57.48L105.32 55.35L101.27 57.48L102.05 52.98L98.77 49.78L103.3 49.13L105.32 45.03Z" fill="#F4D967"/>
<path d="M155.98 145.86L158 149.96L162.52 150.62L159.25 153.81L160.02 158.31L155.98 156.19L151.93 158.31L152.7 153.81L149.43 150.62L153.96 149.96L155.98 145.86Z" fill="#F4D967"/>
<path d="M190.54 0L192.06 3.07L195.45 3.57L193 5.96L193.58 9.34L190.54 7.74L187.51 9.34L188.09 5.96L185.64 3.57L189.03 3.07L190.54 0Z" fill="#F4D967"/>
<path d="M116.69 11.6C116.69 12.41 116.03 13.06 115.23 13.06C114.43 13.06 113.77 12.4 113.77 11.6C113.77 10.8 114.43 10.14 115.23 10.14C116.03 10.14 116.69 10.8 116.69 11.6V11.6Z" fill="white"/>
<path d="M184.69 71.1C184.69 71.91 184.03 72.56 183.23 72.56C182.43 72.56 181.77 71.9 181.77 71.1C181.77 70.3 182.43 69.64 183.23 69.64C184.03 69.64 184.69 70.3 184.69 71.1Z" fill="white"/>
<path d="M102.69 144.1C102.69 144.91 102.03 145.56 101.23 145.56C100.43 145.56 99.77 144.9 99.77 144.1C99.77 143.3 100.43 142.64 101.23 142.64C102.03 142.64 102.69 143.3 102.69 144.1Z" fill="white"/>
</g>
<defs>
<clipPath id="clip0_104_103">
<rect width="195.45" height="158.31" fill="white"/>
</clipPath>
</defs>
</svg>
