<svg width="32" height="39" viewBox="0 0 32 39" fill="none" xmlns="http://www.w3.org/2000/svg">
<path d="M22.4943 16.4088C22.4943 16.4088 19.6708 13.4595 18.1485 8.91436C16.6222 4.36516 16.5321 0.14823 17.6616 0.00465753C18.791 -0.138915 21.6104 3.04839 22.7972 7.96268C23.6442 11.474 24.3563 15.5187 24.3563 15.5187L22.4943 16.4047V16.4088Z" fill="#DEE3F7"/>
<path d="M23.1819 26.303C23.1819 26.303 23.4519 32.6776 25.498 34.4046C27.544 36.1315 25.2279 37.8626 24.0412 36.4023C22.8545 34.946 21.5082 30.8399 21.5082 30.5691C21.5082 30.2984 23.1778 26.303 23.1778 26.303H23.1819Z" fill="#DEE3F7"/>
<path d="M16.7695 32.8951C17.2565 29.6012 15.0467 29.0597 15.0467 29.0597L7.98376 34.1299C8.84311 34.9626 10.0789 35.5164 11.814 35.7584C14.0278 36.066 16.0084 35.5287 17.4897 34.8764C16.9619 34.7082 16.5813 34.1791 16.7736 32.8951H16.7695Z" fill="#DEE3F7"/>
<path d="M29.3282 20.3099C32.1845 17.4467 31.1042 15.1988 29.7415 14.8255C28.8331 14.5752 27.8755 14.8009 26.2591 13.7753C24.6427 12.7498 22.9159 12.6514 21.3527 13.6769C19.7895 14.7024 19.7895 17.2416 19.7895 17.2416C19.7895 17.2416 18.7419 20.2853 14.4452 20.2853C10.5536 20.2853 5.86406 23.6285 5.54078 28.0546C5.41393 29.7939 5.50395 31.3076 5.94181 32.5464C6.26508 34.499 7.42724 36.267 7.42724 36.267C8.12699 37.5099 9.82113 37.6494 10.9505 37.4361C12.0841 37.2187 14.7767 37.4361 16.4994 38.0309C18.2222 38.6257 19.2493 38.2483 17.9562 36.4106C16.6631 34.5728 13.1071 34.8436 13.1071 34.8436C15.4682 33.9862 16.5445 31.6932 16.0657 29.7201C16.569 30.2616 17.0151 31.2255 16.7695 32.8992C16.5813 34.1831 16.9578 34.7123 17.4856 34.8805C19.143 34.1503 20.1619 33.2766 20.1619 33.2766C20.1619 33.2766 21.1317 35.221 22.3184 37.1653C23.5051 39.1097 26.1977 38.0309 25.2279 36.9479C24.2581 35.8691 23.0182 34.0847 23.1246 28.7889C23.231 23.4931 26.4678 23.1691 29.32 20.3099H29.3282Z" fill="white"/>
<path d="M21.2176 16.8231C21.2176 16.8231 17.5266 15.0879 14.4738 11.392C11.4252 7.70011 9.82521 3.79494 10.8278 3.25346C11.8303 2.71609 15.6033 4.67278 18.4718 8.83228C20.522 11.8022 22.6335 15.3218 22.6335 15.3218L21.2136 16.819L21.2176 16.8231Z" fill="white"/>
<path d="M28.4074 16.1586C28.1742 16.3145 27.8591 16.2489 27.7036 16.015C27.5481 15.7812 27.6135 15.4654 27.8468 15.3095C28.08 15.1536 28.3951 15.2192 28.5506 15.4531C28.7061 15.6869 28.6407 16.0027 28.4074 16.1586Z" fill="#692EC4"/>
<path d="M26.48 18.4271C26.2345 18.0743 26.5332 17.4385 27.1429 17.0078C27.7567 16.5771 28.4524 16.5074 28.702 16.8601C28.9476 17.2129 28.6488 17.8487 28.0391 18.2794C27.4253 18.7143 26.7296 18.7758 26.48 18.4271Z" fill="#F4D7DD"/>
<path d="M29.4918 17.2703C29.41 17.2785 29.3363 17.2169 29.3281 17.1349C29.3199 17.0529 29.3813 16.979 29.4632 16.9708C29.4632 16.9708 29.4918 16.9708 29.5491 16.9544C29.6064 16.9421 29.6923 16.9175 29.7864 16.8765C29.9788 16.7944 30.2161 16.6508 30.4003 16.3924C30.478 16.2817 30.5517 16.1504 30.6049 15.9904C30.6335 15.9125 30.7154 15.8715 30.7972 15.9002C30.8749 15.9289 30.9159 16.0109 30.8872 16.0889C30.8217 16.2735 30.7399 16.4334 30.6417 16.5688C30.1834 17.2005 29.5041 17.2662 29.4877 17.2662L29.4918 17.2703Z" fill="#692EC4"/>
<path d="M6.58829 29.6298C6.58829 31.4266 5.13559 32.8828 3.33916 32.8828C1.54272 32.8828 0.0941162 31.4266 0.0941162 29.6298C0.0941162 27.8331 1.54682 26.3728 3.34325 26.3728C5.13969 26.3728 6.59239 27.829 6.59239 29.6298H6.58829Z" fill="white"/>
</svg>
