<svg width="48" height="51" viewBox="0 0 48 51" fill="none" xmlns="http://www.w3.org/2000/svg">
<g clip-path="url(#clip0_103_8)">
<path d="M9.95116 35.0302C9.95116 35.0302 10.5682 37.8651 8.77317 39.2797C6.97254 40.6944 4.70072 41.2 4.72316 43.3304C4.7456 45.4609 4.24635 49.2786 2.50182 49.165C0.757281 49.0514 0.875079 47.5629 1.44163 45.5859C2.00819 43.6088 2.7318 43.1089 2.23256 41.592C1.73332 40.0751 2.76546 39.4502 3.82565 38.99C4.89144 38.5241 6.31063 37.422 5.65432 34.928C4.99802 32.4339 4.3922 28.6389 6.17039 27.906C7.94859 27.1731 9.94555 35.0359 9.94555 35.0359L9.95116 35.0302Z" fill="#DEE3F7"/>
<path d="M26.8636 3.96548C26.8636 3.96548 25.1079 1.34645 20.8727 0.346565C16.6432 -0.653324 13.3168 0.704479 12.9859 1.89185C12.6493 3.07921 18.786 7.039 26.4597 5.48236L26.8636 3.96548Z" fill="#DEE3F7"/>
<path d="M33.2472 8.65247C33.4604 10.9079 33.6567 12.5498 36.5007 12.135C39.3503 11.7203 41.1958 12.8225 42.7103 11.3624C44.2193 9.90233 46.2443 9.2774 45.6833 12.0441C45.1224 14.8109 42.6486 14.4075 40.4666 15.0665C38.2789 15.7255 31.9009 18.5036 29.3542 16.4868" fill="#DEE3F7"/>
<path d="M2.93935 29.3604C1.31261 29.3547 0 28.406 0 27.2357C0 26.0653 1.32383 25.1223 2.95057 25.1279C3.60126 25.1279 4.08367 25.2813 4.42585 25.5427C5.0485 22.8611 6.73694 19.5433 10.787 16.8845C16.8956 12.8793 28.3389 12.4475 26.0278 7.46513C26.0278 7.46513 25.8764 7.11858 25.753 6.57887C18.8477 10.0046 12.0379 7.89122 12.0435 6.66977C12.0491 5.43127 14.8931 3.22129 19.2348 3.03949C22.6061 2.89746 24.7993 4.10187 25.6127 4.64158C25.7137 3.64169 26.14 2.55659 27.2731 1.74418C30.1003 -0.295367 31.9402 1.03403 33.4435 0.306839C34.9468 -0.426034 36.8821 1.84076 36.3099 4.55068C35.7378 7.26061 33.9315 8.90247 33.9315 8.90247C33.9315 8.90247 35.2441 10.8511 35.4573 13.1065C35.6704 15.362 35.8668 17.0038 38.7108 16.5891C41.5604 16.1744 43.4059 17.2765 44.9204 15.8165C46.4294 14.3564 48.46 13.7315 47.899 16.4982C47.3381 19.265 44.8643 18.8616 42.6822 19.5206C40.4946 20.1796 34.1166 22.952 31.5699 20.9409C29.0233 18.9298 29.8647 20.4807 28.7091 22.8157C27.5536 25.1507 23.1558 27.5993 21.3327 27.8947C19.5096 28.1901 18.9767 29.5479 18.5673 31.9965C18.1578 34.4451 15.4428 38.7628 13.3505 39.8479C11.2582 40.933 9.9231 42.1885 9.84457 44.6201C9.76604 47.0516 8.90779 50.7274 7.29788 50.9773C5.68797 51.2273 5.85065 50.182 6.50134 48.3469C7.15204 46.5176 7.70176 44.711 6.93888 43.7565C6.176 42.8021 6.43964 41.2284 7.98785 40.433C9.53044 39.6377 11.0786 37.3254 8.81243 35.587C6.73694 33.9906 4.53243 31.6215 4.15099 29.1218C3.83686 29.2809 3.43298 29.3718 2.92813 29.3718L2.93935 29.3604Z" fill="white"/>
<path d="M33.8417 2.05655C33.6622 2.24403 33.3649 2.24971 33.1798 2.06791C32.9947 1.88611 32.989 1.58501 33.1685 1.39753C33.348 1.21005 33.6453 1.20437 33.8305 1.38617C34.0156 1.56797 34.0212 1.86907 33.8417 2.05655Z" fill="#692EC4"/>
<path d="M32.5572 4.51652C32.2655 4.24382 32.4057 3.60753 32.8713 3.08486C33.3369 2.56787 33.9539 2.36335 34.2456 2.63604C34.5373 2.90874 34.3971 3.54503 33.9315 4.0677C33.4659 4.58469 32.8488 4.78921 32.5515 4.51652H32.5572Z" fill="#F4D7DD"/>
<path d="M35.0421 2.85195C34.9692 2.87467 34.8907 2.8349 34.8682 2.76105C34.8458 2.68719 34.8851 2.60766 34.958 2.58493C34.958 2.58493 34.9804 2.57357 35.0309 2.55084C35.0814 2.52812 35.1543 2.48835 35.2329 2.43154C35.3899 2.31791 35.575 2.1418 35.6928 1.86342C35.7433 1.7498 35.777 1.61345 35.7994 1.45437C35.8106 1.38052 35.8779 1.32371 35.9565 1.33507C36.0294 1.34643 36.0855 1.41461 36.0743 1.48846C36.0518 1.67026 36.007 1.83501 35.9509 1.97136C35.6648 2.64174 35.0646 2.8349 35.0477 2.84058L35.0421 2.85195Z" fill="#692EC4"/>
</g>
<defs>
<clipPath id="clip0_103_8">
<rect width="48" height="51" fill="white"/>
</clipPath>
</defs>
</svg>
